<?xml version="1.0" encoding="UTF-8" standalone="no"?>
<!-- Created with Inkscape (http://www.inkscape.org/) -->

<svg
   width="41.804165mm"
   height="11.1125mm"
   viewBox="0 0 41.804165 11.1125"
   version="1.1"
   id="svg1"
   xml:space="preserve"
   xmlns="http://www.w3.org/2000/svg"
   xmlns:svg="http://www.w3.org/2000/svg"><defs
     id="defs1" /><g
     id="layer1"
     transform="translate(16.111759,-144.99675)"><g
       id="g71"
       transform="matrix(0.02794341,0,0,0.02794341,-38.521449,134.79124)"><path
         d="m 913.356,614.46199 -0.40199,-2.47281 17.00363,-2.76424 q 3.30524,-0.53732 5.0037,0.48078 1.69647,1.00585 2.14822,3.78471 l 0.15324,0.9426 -2.08108,0.33832 -0.12538,-0.77123 q -0.26667,-1.64038 -1.29425,-2.16441 -1.02757,-0.52403 -3.40245,-0.13795 z m 0.71987,-15.1008 9.41019,2.81272 -0.42768,-6.79544 z m -2.37439,1.5661 -0.17839,-2.83453 18.03687,-8.20607 0.16359,2.59935 -4.63477,1.98175 0.52428,8.3303 4.84667,1.38502 0.16593,2.63648 z m 9.4,-16.93745 6.76433,0.51739 0.30646,-4.00666 q 0.15417,-2.01569 -0.60059,-3.04363 -0.76618,-1.04125 -2.48508,-1.17273 -1.73127,-0.13242 -2.62217,0.78208 -0.90231,0.9012 -1.05649,2.91689 z m -7.59286,-0.58077 5.5648,0.42564 0.28282,-3.6975 q 0.13998,-1.8302 -0.47206,-2.77259 -0.62346,-0.9557 -2.0332,-1.06353 -1.39739,-0.10688 -2.15894,0.74288 -0.76062,0.8374 -0.9006,2.6676 z m -2.24386,2.34097 0.48807,-6.38097 q 0.2185,-2.8566 1.52389,-4.31158 1.30539,-1.45497 3.49421,-1.28755 1.69417,0.12958 2.6353,0.99764 0.94113,0.86805 1.07117,2.42038 0.53665,-1.8123 1.87556,-2.72985 1.3275,-0.93087 3.20717,-0.7871 2.47324,0.18918 3.69252,1.97408 1.21928,1.78491 0.98187,4.88883 l -0.50699,6.6283 z m 1.98423,-19.73326 0.55268,-2.45627 10.97454,2.46938 q 2.90396,0.65342 4.42341,-0.11067 1.50734,-0.76682 2.03824,-3.12628 0.52818,-2.34737 -0.50543,-3.68592 -1.04572,-1.34128 -3.94968,-1.9947 l -10.97454,-2.46938 0.55269,-2.45626 11.27703,2.53744 q 3.53315,0.79499 4.94125,2.95513 1.41082,2.14804 0.64305,5.56019 -0.77048,3.42425 -2.96813,4.77306 -2.19493,1.33671 -5.72807,0.54172 z m 5.29894,-20.66581 0.86917,-2.34967 15.38917,5.69262 3.12814,-8.45649 1.97744,0.73148 -3.9973,10.80615 z m 11.38984,-20.25236 6.57846,7.29295 3.16567,-6.02822 z m -2.84244,0.10428 1.32047,-2.51451 19.67468,2.36119 -1.21091,2.30588 -4.98969,-0.71515 -3.88069,7.38979 3.42127,3.70181 -1.22821,2.33881 z m 7.59099,-13.33362 1.99062,-2.72352 17.35094,2.51217 -12.50614,-9.14072 1.43442,-1.96254 14.94929,10.92643 -1.99061,2.72351 -17.35095,-2.51217 12.50614,9.14073 -1.43441,1.96253 z m 12.91143,-16.517 1.68522,-1.85377 13.70136,12.45554 -1.68521,1.85377 z m 19.58192,-15.03745 3.039,9.33957 5.34587,-4.21693 z m -2.63862,-1.06211 2.22988,-1.75898 17.00854,10.1675 -2.04487,1.61304 -4.26617,-2.68483 -6.55332,5.1694 1.61757,4.77408 -2.07408,1.63608 z m 15.54966,-8.56652 7.15597,12.49507 2.62601,-1.50392 q 3.32556,-1.90456 4.00167,-4.29268 0.68687,-2.39429 -1.17455,-5.64452 -1.84908,-3.2287 -4.2556,-3.8371 -2.40193,-0.62533 -5.72749,1.27923 z m -3.19715,-0.54149 4.46637,-2.55791 q 4.67085,-2.67501 7.97122,-1.97824 3.29421,0.686 5.66104,4.81874 2.37916,4.15426 1.29926,7.35962 -1.0799,3.20537 -5.72923,5.86805 l -4.46637,2.5579 z m 25.90654,-10.27205 0.1957,9.81962 6.3401,-2.48266 z m -2.2164,-1.78263 2.6446,-1.03558 13.3227,14.66885 -2.4252,0.94965 -3.3026,-3.80808 -7.7722,3.04341 0.1614,5.03809 -2.4598,0.96322 z m 14.6154,-5.25522 3.6464,-0.79994 7.3157,11.29552 1.9396,-13.32595 3.6464,-0.79994 3.9678,18.08658 -2.3865,0.52355 -3.4841,-15.88179 -1.9426,13.42819 -2.4592,0.53949 -7.3854,-11.38181 3.4842,15.88179 -2.3744,0.52089 z m 96.854,7.07036 10.5069,5.16501 -0.9301,1.89214 -8.2586,-4.05979 -2.4184,4.91956 7.9136,3.89017 -0.9302,1.89214 -7.9136,-3.89017 -2.96,6.02144 8.459,4.15828 -0.9302,1.89214 -10.7072,-5.2635 z m 16.1955,8.51596 2.0977,1.36971 -8.971,13.73877 7.5496,4.92964 -1.1528,1.76537 -9.6472,-6.29935 z m 13.5232,9.28716 8.9544,7.54264 -1.3583,1.61255 -7.0383,-5.92864 -3.5316,4.19264 6.7443,5.68095 -1.3584,1.61255 -6.7442,-5.68095 -4.3227,5.13171 7.2091,6.07247 -1.3583,1.61255 -9.1252,-7.68646 z m 22.1455,23.55251 -1.9601,1.77104 q 0.026,-1.72854 -0.5059,-3.1868 -0.5237,-1.44907 -1.6046,-2.64537 -2.1286,-2.3558 -4.7042,-2.30191 -2.5663,0.0456 -5.2902,2.50674 -2.7147,2.45285 -3.0287,5.00978 -0.3047,2.54862 1.8238,4.90442 1.0809,1.19631 2.4696,1.86379 1.3971,0.67668 3.1194,0.82542 l -1.9417,1.75441 q -1.5439,-0.37679 -2.8647,-1.17254 -1.3124,-0.78655 -2.4099,-2.00126 -2.8187,-3.1196 -2.5352,-6.63521 0.2927,-3.52392 3.5963,-6.50891 3.3129,-2.99331 6.8391,-2.92 3.5355,0.065 6.3542,3.18459 1.1142,1.23312 1.764,2.61833 0.6674,1.38609 0.8788,2.93348 z m 3.4302,2.01426 8.8565,12.92006 -1.739,1.19209 -3.7165,-5.42172 -13.5339,9.27727 -1.4235,-2.07662 13.5339,-9.27727 -3.7165,-5.42172 z m 6.4457,29.46605 q 0.1196,0.84262 -0.3367,1.92037 -0.4507,1.08882 -1.4993,2.47941 l -3.3718,4.54978 -1.2126,-2.40263 3.1732,-4.25506 q 1.2473,-1.65757 1.3986,-2.70644 0.1569,-1.03779 -0.5137,-2.36643 l -1.2294,-2.43584 -6.9864,3.5262 -1.1288,-2.23655 16.5305,-8.34329 2.5482,5.04883 q 1.4306,2.83443 0.95,4.82745 -0.4806,1.99302 -2.8721,3.20009 -1.5612,0.78795 -2.9597,0.5769 -1.3929,-0.19997 -2.49,-1.38279 z m 4.1144,-9.10628 -5.8681,2.96178 1.4194,2.81229 q 0.8159,1.61651 1.9712,2.06143 1.1721,0.4504 2.6225,-0.28167 1.4504,-0.73206 1.7621,-1.93129 0.3282,-1.19374 -0.4876,-2.81025 z m 8.9587,14.52017 0.8971,2.33914 -17.2888,6.63059 -0.8971,-2.33915 z m 5.5261,22.54559 -2.5497,0.69104 q 0.8063,-1.5292 0.9925,-3.07026 0.1895,-1.52908 -0.2322,-3.08525 -0.8306,-3.06444 -3.1512,-4.18307 -2.3086,-1.12187 -5.8519,-0.16155 -3.5312,0.95708 -4.9694,3.09443 -1.4261,2.1341 -0.5956,5.19854 0.4218,1.55616 1.3575,2.78029 0.9389,1.23609 2.407,2.14887 l -2.5257,0.68455 q -1.2058,-1.03528 -2.0228,-2.34297 -0.8138,-1.29572 -1.242,-2.87583 -1.0999,-4.05799 0.7454,-7.06381 1.8572,-3.00906 6.1546,-4.17378 4.3094,-1.16796 7.4199,0.49471 3.1225,1.65942 4.2223,5.71742 0.4348,1.60404 0.3867,3.13336 -0.033,1.53803 -0.5454,3.01331 z m 0.8527,12.47221 -9.563,-2.23882 0.8376,6.75717 z m 2.2754,-1.70675 0.3494,2.81857 -17.5079,9.28123 -0.3204,-2.58471 4.5065,-2.25826 -1.0268,-8.28338 -4.9215,-1.08955 -0.325,-2.62164 z m 1.2743,14.89542 -0.01,2.50526 -16.4082,-0.0587 -0.032,9.01645 -2.1084,-0.008 0.041,-11.52171 z m -4.0368,27.63795 -6.8362,-1.29489 -0.5862,3.09516 q -0.3255,1.71818 0.3863,2.82497 0.7119,1.1068 2.3569,1.4184 1.6329,0.3093 2.7002,-0.4605 1.0673,-0.7698 1.3927,-2.48798 z m 2.4891,-2.07835 -1.0526,5.55667 q -0.5793,3.0586 -2.2639,4.35523 -1.6748,1.31113 -4.3434,0.80564 -2.693,-0.51011 -3.7723,-2.34288 -1.0815,-1.82059 -0.5022,-4.8792 l 0.5863,-3.09515 -7.3114,-1.38491 0.4663,-2.46151 z m -15.8152,22.62864 q -0.5125,0.67945 -1.5981,1.1168 -1.0895,0.44912 -2.8147,0.68764 l -5.603,0.82222 0.8464,-2.55477 5.254,-0.75491 q 2.0546,-0.28618 2.9045,-0.91919 0.846,-0.62124 1.314,-2.03402 l 0.858,-2.59009 -7.4288,-2.46101 0.7878,-2.37817 17.5773,5.82296 -1.7785,5.36855 q -0.9984,3.01393 -2.7496,4.08002 -1.7511,1.0661 -4.2941,0.22366 -1.66,-0.54993 -2.4975,-1.68967 -0.8414,-1.12797 -0.7777,-2.74002 z m 9.3552,-3.51179 -6.2397,-2.0671 -0.9907,2.99038 q -0.5694,1.71888 -0.069,2.8514 0.5081,1.1482 2.0503,1.65912 1.5423,0.51092 2.6119,-0.11465 1.0774,-0.6099 1.6468,-2.32878 z m -9.0954,23.45523 q 1.2392,-2.4309 0.1593,-4.79108 -1.0855,-2.34913 -4.2125,-3.94314 -3.116,-1.58838 -5.6547,-1.08673 -2.5444,0.5127 -3.7836,2.9436 -1.2391,2.43091 -0.148,4.76899 1.0856,2.34913 4.2015,3.9375 3.1271,1.59402 5.6658,1.09236 2.5331,-0.4906 3.7722,-2.9215 z m 1.8122,0.92374 q -1.7686,3.46955 -5.159,4.3584 -3.3793,0.89448 -7.2909,-1.09944 -3.9005,-1.98829 -5.173,-5.25407 -1.2615,-3.26016 0.5071,-6.72971 1.7743,-3.48061 5.1592,-4.38614 3.3794,-0.89448 7.2909,1.09944 3.9115,1.99393 5.173,5.25408 1.2669,3.27683 -0.5073,6.75744 z m -7.5381,12.43356 -1.3773,2.09275 -14.3902,-9.4703 q -2.7972,-1.84088 -3.3589,-3.73977 -0.5685,-1.88854 0.9792,-4.24029 l 0.525,-0.79773 1.7612,1.15908 -0.4295,0.65268 q -0.9136,1.38826 -0.5116,2.46942 0.402,1.08116 2.4119,2.40387 z m -5.1829,7.66277 -7.3327,9.12712 -1.6437,-1.32051 5.7637,-7.17407 -4.2735,-3.43332 -5.5229,6.87434 -1.6436,-1.32051 5.5228,-6.87434 -5.2307,-4.20233 -5.9034,7.3481 -1.6437,-1.32051 7.4725,-9.30114 z m -23.0317,22.68593 -1.8161,-1.91844 q 1.7287,-0.014 3.1742,-0.57974 1.4365,-0.55719 2.6074,-1.6656 2.3057,-2.1827 2.1921,-4.75632 -0.1052,-2.56463 -2.629,-5.23064 -2.5152,-2.65701 -5.0787,-2.91151 -2.555,-0.24551 -4.8608,1.93719 -1.1708,1.10841 -1.8059,2.51224 -0.6441,1.41235 -0.7528,3.13767 l -1.799,-1.90044 q 0.3409,-1.55226 1.1057,-2.89112 0.7559,-1.33033 1.9448,-2.45579 3.0533,-2.89037 6.5745,-2.68857 3.5298,0.21081 6.5907,3.44426 3.0694,3.24244 3.078,6.76946 0.017,3.53602 -3.0362,6.42639 -1.2069,1.14251 -2.5766,1.82435 -1.3703,0.69938 -2.9123,0.94661 z m -1.9337,3.47581 -12.7109,9.15418 -1.2321,-1.71089 5.3339,-3.84142 -9.589,-13.31474 2.043,-1.47133 9.589,13.31473 5.334,-3.84142 z m -26.894,16.3354 -1.1644,-2.14791 q 1.5789,-0.0801 2.8507,-0.38863 1.2717,-0.30854 2.3075,-0.87009 1.799,-0.97531 2.402,-2.2051 0.592,-1.22388 -0.1055,-2.51045 -0.5851,-1.07941 -1.5299,-1.28672 -0.9497,-0.1905 -2.9429,0.45273 l -1.4779,0.44857 q -2.7183,0.86705 -4.5293,0.31108 -1.8159,-0.53915 -2.8917,-2.52352 -1.2827,-2.36597 -0.3529,-4.45013 0.919,-2.07825 3.9828,-3.73924 1.1557,-0.62656 2.6059,-1.07421 1.4394,-0.44173 3.1128,-0.68589 l 1.2295,2.26785 q -1.749,-0.0253 -3.2424,0.29062 -1.4935,0.31589 -2.7364,0.98975 -1.8863,1.0226 -2.5092,2.31965 -0.623,1.29704 0.1218,2.67084 0.6502,1.19934 1.7581,1.47339 1.097,0.27995 2.9593,-0.29234 l 1.483,-0.46538 q 2.7301,-0.84525 4.3987,-0.39556 1.6687,0.44969 2.6795,2.31413 1.1704,2.15882 0.3287,4.2234 -0.8526,2.0705 -3.5239,3.51869 -1.1448,0.62066 -2.4455,1.0578 -1.3008,0.43714 -2.7684,0.69667 z"
         id="path57"
         style="font-size:25.4px;font-family:'&quot;Call Me&quot;', '(Maybe)?';-inkscape-font-specification:'&quot;Call Me&quot;, (Maybe)?';fill:#f79a4d;fill-opacity:1;fill-rule:evenodd;stroke:#f9f9f9;stroke-width:5.55626e-08"
         transform="rotate(-10.082627,1053.9373,584.28773)"
         aria-label="JABULANI ADAM        ELECTRICAL PROJECTS" /><g
         id="g64"
         transform="matrix(1.6038511,0,0,1.6038511,419.67614,495.87588)"><path
           d="m 408.98562,-38.998079 c 0,-8.267271 -6.70232,-15.039448 -14.97425,-15.039448 -8.27193,0 -14.97424,6.772177 -14.97424,15.039448 0,3.274306 1.73729,7.498765 4.52721,10.614712 2.76662,3.088001 4.82063,8.285902 4.82063,12.431182 v 1.625509 h 11.25281 v -1.611536 c 0,-4.14528 2.05401,-9.333866 4.80666,-12.431182 2.79923,-3.14855 4.54118,-7.750277 4.54118,-10.628685 z"
           fill="#ffc807"
           id="path58"
           style="stroke-width:0.0465762" /><path
           d="m 399.81011,-17.568378 -9.03112,-12.482416 7.16341,-14.932324 9.27798,12.407895 c -0.81043,1.695373 -1.83045,3.139234 -2.97622,4.434052 -2.16113,2.673473 -3.14855,5.006939 -4.08473,8.262614 z"
           fill="#ffb300"
           id="path59"
           style="stroke-width:0.0465762" /><path
           d="m 393.42917,-36.771737 h -3.85185 c -0.58686,0 -0.99673,-0.591518 -0.78248,-1.141117 l 2.75731,-7.126155 c 0.12576,-0.321376 0.43782,-0.535626 0.78248,-0.535626 h 4.8905 c 0.63344,0 1.03865,0.675354 0.74056,1.234269 l -3.79596,7.126155 c -0.14904,0.270142 -0.43316,0.442474 -0.74056,0.442474 z"
           fill="#fff8e1"
           id="path60"
           style="stroke-width:0.0465762" /><path
           d="m 391.87819,-30.251072 7.45218,-7.964527 c 0.55892,-0.596175 0.13507,-1.569617 -0.68001,-1.569617 h -4.8905 c -0.40521,0 -0.76385,0.260827 -0.8896,0.647409 l -2.56169,7.964527 c -0.3074,0.950154 0.8896,1.653454 1.56962,0.922208 z"
           fill="#fff8e1"
           id="path61"
           style="stroke-width:0.0465762" /><path
           d="m 397.81199,-7.0514766 h -7.60123 c -0.26549,0 -0.50768,-0.1723319 -0.65207,-0.4564466 l -1.03399,-2.0586672 h 10.97335 l -1.03399,2.0586672 c -0.14439,0.2841147 -0.38659,0.4564466 -0.65207,0.4564466 z"
           fill="#455a64"
           id="path62"
           style="stroke-width:0.0465762" /><path
           d="m 399.30709,-8.7282191 h -10.59143 c -1.02933,0 -1.8677,-0.8337136 -1.8677,-1.8677049 v -7.619863 c 0,-1.029334 0.83371,-1.867705 1.8677,-1.867705 h 10.59608 c 1.02934,0 1.86771,0.833714 1.86771,1.867705 v 7.624521 c -0.005,1.0293333 -0.83837,1.8630469 -1.87236,1.8630469 z"
           fill="#eceff1"
           id="path63"
           style="stroke-width:0.0465762" /><path
           d="m 395.30619,-16.730007 h -8.42097 v -1.676742 h 8.42097 c 0.46111,0 0.83837,0.377267 0.83837,0.838371 0,0.465762 -0.37726,0.838371 -0.83837,0.838371 z m -8.42097,1.46715 h 14.25231 v 1.676742 h -14.25231 z m 14.25231,4.820634 h -7.92727 c -0.4611,0 -0.83837,-0.377267 -0.83837,-0.838371 0,-0.461104 0.37727,-0.838371 0.83837,-0.838371 h 7.92727 z"
           fill="#cfd8dc"
           id="path64"
           style="stroke-width:0.0465762" /></g><g
         style="overflow:hidden;fill:currentColor"
         id="g70"
         transform="matrix(0.22065524,-0.0575545,0.0575545,0.22065524,913.23086,503.08963)"><path
           d="m 944.3,414.4 c -87.7,3.2 -113.4,-18.9 -81.6,-70.4 -60.1,-7.2 -61.4,-41.1 -4.2,-107.7 -77.7,41 -110.4,32.2 -104,-28.1 -57.3,19.6 -73.2,-10.4 -50.5,-95.2 -52.2,70.6 -85.5,76.9 -105.9,19.9 -43.1,42.5 -70.4,22.4 -86.8,-63.8 -16.4,86.3 -43.7,106.4 -86.8,63.8 -20.4,57 -53.7,50.8 -105.9,-19.9 22.7,84.8 6.8,114.8 -50.5,95.2 6.4,60.2 -26.4,69 -104,28.1 57.2,66.6 55.9,100.5 -4.2,107.7 31.8,51.5 6.2,73.6 -81.6,70.4 80.5,35.2 94,66.3 42.9,98.8 51,32.6 37.5,63.7 -42.9,98.8 87.8,-3.2 113.4,18.9 81.6,70.4 60.1,7.2 61.4,41.1 4.2,107.7 77.6,-41 110.4,-32.2 104,28.1 57.3,-19.6 73.2,10.4 50.5,95.2 52.2,-70.6 85.5,-76.9 105.9,-19.9 43.1,-42.5 70.4,-22.4 86.8,63.8 16.4,-86.3 43.7,-106.4 86.8,-63.8 20.4,-57 53.7,-50.8 105.9,19.9 -22.7,-84.8 -6.8,-114.8 50.5,-95.2 -6.4,-60.2 26.4,-69 104,-28.1 -57.2,-66.6 -55.9,-100.5 4.2,-107.7 -31.9,-51.5 -6.2,-73.7 81.6,-70.4 -80.5,-35.2 -94,-66.3 -42.9,-98.8 -51.1,-32.5 -37.6,-63.7 42.9,-98.8 z m -433,458.2 C 339.1,825.6 198.9,685.5 151.9,513.2 198.9,341 339.1,200.8 511.3,153.8 683.5,200.8 823.7,341 870.7,513.2 823.6,685.5 683.5,825.6 511.3,872.6 Z"
           fill="#f9a433"
           id="path65" /><path
           d="m 878.9,513.3 c 0,-4 -13.4,-29.7 -13.5,-33.7 -0.8,-22.1 -3.6,-22 -8.2,-42.9 1,-1 1.8,-2 2.8,-2.9 -1.3,-0.4 -2.6,-1 -3.8,-1.4 -11.8,-50.3 -34.5,-97.3 -66.5,-137.8 0.5,-1.4 0.9,-2.8 1.4,-4.1 -1.4,0.2 -2.9,0.3 -4.3,0.4 -32.5,-40.1 -73.3,-72.7 -119.6,-95.5 -0.2,-1.4 -0.4,-2.7 -0.5,-4.1 -1.1,0.8 -2.4,1.4 -3.5,2.1 -45.3,-21.6 -71.9,-33.8 -125.3,-34.1 -0.7,-1.2 -25.6,-20.5 -26.3,-21.7 -0.7,1.2 -28.9,20.6 -29.6,21.7 -53.4,0.3 -76.6,12.5 -122,34.1 -1.2,-0.7 -2.4,-1.4 -3.5,-2.1 -0.1,1.4 -0.4,2.7 -0.5,4.1 -46.3,22.8 -87,55.4 -119.5,95.5 -1.4,-0.2 -2.9,-0.2 -4.3,-0.4 0.5,1.4 0.9,2.8 1.4,4.1 -32,40.5 -54.7,87.5 -66.5,137.8 -1.3,0.5 -2.6,1 -3.9,1.4 1,0.9 1.9,2 2.8,2.9 -4.8,21.5 -7.6,23.9 -8.3,46.7 -0.1,3.3 -13.9,26.6 -13.9,29.9 0,3 13.8,29.7 13.9,32.6 0.6,23.2 3.5,22.1 8.3,43.9 -1,1 -1.8,2 -2.8,3 1.3,0.4 2.6,1 3.9,1.4 11.8,50.2 34.5,97.3 66.5,137.8 -0.5,1.4 -0.8,2.8 -1.4,4.1 1.4,-0.2 2.9,-0.3 4.3,-0.4 32.5,40.1 73.2,72.7 119.5,95.5 0.2,1.4 0.4,2.7 0.5,4.1 1.2,-0.8 2.4,-1.4 3.5,-2.1 45.3,21.6 62.9,33.7 116.3,34.1 0.7,1.2 34.6,20.4 35.3,21.6 0.7,-1.2 29.4,-20.5 30.1,-21.6 53.4,-0.3 76.1,-12.5 121.5,-34.1 1.2,0.7 2.4,1.4 3.5,2.1 0.1,-1.4 0.4,-2.7 0.5,-4.1 46.3,-22.8 87.1,-55.4 119.6,-95.5 1.4,0.2 2.9,0.2 4.3,0.4 -0.5,-1.4 -0.9,-2.8 -1.4,-4.1 32,-40.5 54.7,-87.5 66.5,-137.8 1.3,-0.5 2.5,-1 3.8,-1.4 -1,-0.9 -1.9,-2 -2.9,-3 4.8,-21.6 7.7,-20.2 8.3,-43 0.1,-3.2 13.5,-30.2 13.5,-33.5 z M 511.3,830.1 c -175,0 -316.9,-141.9 -316.9,-316.9 0,-175 141.8,-316.9 316.9,-316.9 175.1,0 316.9,141.9 316.9,316.9 0,175 -141.9,316.9 -316.9,316.9 z"
           fill="#f9a433"
           id="path66" /><path
           d="m 511.3,513.2 m -281.2,0 a 281.2,281.2 0 1 0 562.4,0 281.2,281.2 0 1 0 -562.4,0 z"
           fill="#f58a33"
           id="path67" /><path
           d="m 511.3,232 c -131.5,0 -241.9,90.3 -272.7,212.2 30.8,122 141.2,212.2 272.7,212.2 131.5,0 241.9,-90.3 272.7,-212.2 C 753.2,322.3 642.8,232 511.3,232 Z"
           fill="#f79a4d"
           id="path68" /><path
           d="m 400.4,348.9 a 123.8,100.6 0 1 0 247.6,0 123.8,100.6 0 1 0 -247.6,0 z"
           fill="#f4b04e"
           id="path69" /><path
           d="m 481,296.2 a 51,33.9 0 1 0 102,0 51,33.9 0 1 0 -102,0 z"
           fill="#ffeec5"
           id="path70" /></g><path
         style="font-size:12.8478px;font-family:'&quot;Call Me&quot;', '(Maybe)?';-inkscape-font-specification:'&quot;Call Me&quot;, (Maybe)?';fill:#ff00ff;fill-rule:evenodd;stroke:#f9f9f9;stroke-width:2.81047e-08"
         d="m 949.9469,650.30847 2.80918,5.21334 -0.93884,0.50589 -2.20806,-4.09778 -2.441,1.31532 2.11581,3.92658 -0.93884,0.50589 -2.11581,-3.92658 -2.98774,1.60992 2.26163,4.19719 -0.93885,0.50589 -2.86274,-5.31276 z m 5.86651,9.47298 -0.82071,0.49769 -0.57251,-0.94408 q -0.32203,-0.53105 -0.66346,-0.61013 -0.33817,-0.0737 -0.89604,0.26458 l -0.53105,0.32203 0.98562,1.62533 -0.76706,0.46516 -0.98562,-1.62533 -5.24073,3.17806 -0.60178,-0.99236 5.24073,-3.17806 -0.57251,-0.94408 0.76707,-0.46516 0.5725,0.94408 0.4184,-0.25372 q 1.00309,-0.60829 1.74204,-0.41811 0.74431,0.18693 1.35911,1.20075 z m 2.30261,3.47482 -0.80204,0.52724 -0.6065,-0.92262 q -0.34115,-0.51897 -0.68523,-0.58557 -0.34064,-0.0614 -0.88582,0.29703 l -0.51897,0.34115 1.04414,1.58836 -0.74962,0.49278 -1.04414,-1.58836 -5.12155,3.36675 -0.63751,-0.96979 5.12155,-3.36675 -0.6065,-0.92261 0.74962,-0.49278 0.6065,0.92261 0.40889,-0.26879 q 0.98027,-0.6444 1.72566,-0.48125 0.75062,0.15971 1.40192,1.15047 z m -1.8444,2.09437 0.66515,0.94338 -5.74236,4.04872 -0.66514,-0.94339 z m 2.23541,-1.57611 0.66515,0.94339 -1.19461,0.84227 -0.66515,-0.94338 z m 2.52931,8.41229 -0.85445,0.65893 q -0.0852,-0.55221 -0.28353,-1.02511 -0.18953,-0.47177 -0.49601,-0.86918 -0.68575,-0.88923 -1.63134,-0.94429 -0.94062,-0.0589 -1.95901,0.72645 -1.01838,0.78536 -1.20543,1.7139 -0.18208,0.9247 0.50367,1.81392 0.30648,0.39742 0.70962,0.70445 0.41194,0.30817 0.92437,0.53092 l -0.84451,0.65127 q -0.47383,-0.2446 -0.88122,-0.58796 -0.40356,-0.3384 -0.75984,-0.80039 -0.96925,-1.25683 -0.7502,-2.60615 0.21905,-1.34932 1.56033,-2.38369 1.36115,-1.0497 2.71574,-0.90601 1.35841,0.14866 2.36213,1.4502 0.32564,0.42225 0.54653,0.8936 0.22586,0.46751 0.34315,0.97914 z m 1.32091,1.1356 0.74337,0.88306 -5.37513,4.52488 -0.74338,-0.88306 z m 2.09246,-1.76147 0.74338,0.88306 -1.11822,0.94133 -0.74338,-0.88305 z m 1.7071,10.84817 -0.41469,0.38316 -3.60172,-3.89801 q -0.82435,0.86419 -0.85086,1.7599 -0.0176,0.89606 0.76146,1.73924 0.45128,0.48841 0.99255,0.83387 0.54553,0.35006 1.20235,0.58022 l -0.80172,0.74078 q -0.61499,-0.27734 -1.15913,-0.66287 -0.54413,-0.38552 -0.99966,-0.87853 -1.14098,-1.23483 -1.0906,-2.62237 0.0546,-1.38293 1.28025,-2.51538 1.26708,-1.17077 2.63899,-1.17429 1.38077,-0.003 2.45363,1.15795 0.96216,1.04131 0.84717,2.26648 -0.10613,1.22551 -1.25802,2.28985 z m -0.53455,-1.07769 q 0.68723,-0.65208 0.74855,-1.41767 0.0656,-0.76098 -0.51342,-1.38761 -0.65563,-0.70957 -1.45242,-0.76768 -0.79254,-0.0535 -1.58014,0.55465 z m 6.23783,5.95093 -2.92244,3.07303 -0.83645,-0.79546 2.8965,-3.04575 q 0.68738,-0.7228 0.74707,-1.34997 0.0597,-0.62716 -0.50402,-1.16323 -0.67734,-0.64414 -1.47898,-0.58407 -0.80165,0.0601 -1.51064,0.8056 l -2.73655,2.87756 -0.84099,-0.79978 4.84191,-5.09142 0.841,0.79978 -0.75223,0.79099 q 0.73667,-0.17381 1.35741,-0.0163 0.62529,0.16179 1.15716,0.6676 0.87736,0.83436 0.80863,1.80786 -0.0644,0.96896 -1.06738,2.02361 z m 7.02632,2.67595 -0.69435,0.82592 q -0.20096,-0.52136 -0.49553,-0.94112 -0.28573,-0.42052 -0.66988,-0.74348 -0.85954,-0.72261 -1.79513,-0.57485 -0.93156,0.14295 -1.75914,1.12733 -0.82757,0.98438 -0.81239,1.93145 0.0192,0.94227 0.87874,1.66488 0.38415,0.32296 0.84347,0.537 0.46816,0.21328 1.01629,0.32168 l -0.68628,0.81632 q -0.51507,-0.13798 -0.98629,-0.38661 -0.46642,-0.2446 -0.91299,-0.62003 -1.21487,-1.02135 -1.28848,-2.38635 -0.0736,-1.365 1.01637,-2.6615 1.10612,-1.31572 2.4602,-1.46407 1.35889,-0.14431 2.61697,0.91337 0.40816,0.34314 0.72445,0.75656 0.32032,0.40863 0.54397,0.8835 z m -0.81478,8.68427 q -1.14179,0.71411 -1.74267,0.7438 -0.60089,0.0297 -1.22482,-0.43489 l -0.73966,-0.55074 0.57696,-0.77489 0.54343,0.40463 q 0.38241,0.28474 0.72862,0.26095 0.34621,-0.0238 1.10486,-0.50696 l 0.48076,-0.29902 1.84934,-7.24214 0.98118,0.73058 -1.52088,5.71907 5.04308,-3.09648 0.98118,0.73058 z m 10.54111,0.0741 1.12142,0.70323 -0.84655,1.34996 -1.12142,-0.70323 z m 9.02565,1.75 -3.30475,6.49044 1.36405,0.69453 q 1.72743,0.87956 2.92536,0.50395 1.20348,-0.37276 2.06315,-2.06106 0.854,-1.67711 0.4446,-2.86407 -0.4009,-1.1897 -2.12834,-2.06926 z m -0.65675,-1.50299 2.32002,1.18128 q 2.42634,1.23537 3.04594,2.82506 0.6225,1.5841 -0.4705,3.73081 -1.0988,2.15789 -2.75454,2.58907 -1.65563,0.43118 -4.07068,-0.79849 l -2.32001,-1.18129 z m 5.54156,10.10381 1.6499,-3.92029 1.0639,0.44775 -1.6328,3.87982 q -0.387,0.91936 -0.2231,1.5328 0.1662,0.60767 0.8832,0.90941 0.8615,0.36258 1.59,0.0226 0.7342,-0.3376 1.1333,-1.28587 l 1.5452,-3.67166 1.0639,0.44776 -2.7254,6.47599 -1.0639,-0.44775 0.4185,-0.99453 q -0.6356,0.42674 -1.2719,0.49927 -0.628,0.0692 -1.3046,-0.21553 -1.1159,-0.46965 -1.4021,-1.40686 -0.2862,-0.9372 0.2759,-2.27287 z m 12.4189,1.44049 q -0.145,-0.17194 -0.3465,-0.29753 -0.1936,-0.12938 -0.4534,-0.22255 -0.9212,-0.33034 -1.6332,0.0941 -0.704,0.42066 -1.1064,1.54264 l -1.2493,3.48403 -1.0925,-0.39175 2.3717,-6.61376 1.0925,0.39175 -0.3685,1.0275 q 0.5585,-0.47951 1.2114,-0.57193 0.6551,-0.0983 1.4405,0.18331 0.1122,0.0402 0.2416,0.10666 0.1316,0.0605 0.2864,0.14933 z m 3.2163,3.51317 q -1.34,-0.40185 -1.9487,-0.25037 -0.6087,0.15148 -0.8303,0.89058 -0.1766,0.58888 0.1034,1.05273 0.2879,0.45964 0.9549,0.65967 0.9194,0.27571 1.6668,-0.20747 0.7553,-0.48739 1.0796,-1.569 l 0.074,-0.24637 z m 2.3422,0.20466 -1.1515,3.83972 -1.1056,-0.33157 0.3063,-1.02152 q -0.5624,0.49938 -1.2155,0.62443 -0.6513,0.11904 -1.4685,-0.12603 -1.0336,-0.30995 -1.4735,-1.07062 -0.4321,-0.76487 -0.1402,-1.73832 0.3406,-1.13569 1.2707,-1.4855 0.9361,-0.348 2.4444,0.10431 l 1.5503,0.46492 0.032,-0.10816 q 0.2289,-0.76314 -0.1515,-1.32912 -0.3726,-0.5702 -1.28,-0.84231 -0.5768,-0.17299 -1.1651,-0.19877 -0.5882,-0.0258 -1.1759,0.0993 l 0.3064,-1.02153 q 0.6771,-0.0523 1.2822,0.005 0.6069,0.051 1.1477,0.2132 1.4602,0.43789 1.9542,1.41126 0.494,0.97337 0.033,2.51166 z m 6.8508,2.16972 q 0.2864,-1.24087 -0.065,-2.06233 -0.3437,-0.82617 -1.2361,-1.03215 -0.8925,-0.20598 -1.5696,0.38458 -0.6696,0.58585 -0.956,1.82672 -0.2864,1.24086 0.057,2.06703 0.3512,0.82146 1.2437,1.02744 0.8924,0.20598 1.562,-0.37987 0.6771,-0.59056 0.9635,-1.83142 z m -3.2749,-3.27323 q 0.4957,-0.52943 1.1013,-0.69868 0.6131,-0.17396 1.365,-4.3e-4 1.247,0.28781 1.7947,1.45723 0.5539,1.17084 0.1814,2.78457 -0.3724,1.61374 -1.3834,2.4234 -1.0049,0.81107 -2.2518,0.52326 -0.7519,-0.17353 -1.2282,-0.5925 -0.4688,-0.42367 -0.6822,-1.11676 l -0.2371,1.02692 -1.1308,-0.261 2.1953,-9.51127 1.1308,0.26101 z m 6.7972,0.36815 1.1357,0.20623 -1.2553,6.91309 -1.1358,-0.20624 z m 0.4887,-2.69117 1.1357,0.20624 -0.2611,1.43817 -1.1358,-0.20624 z m 3.2415,0.55735 1.1412,0.17352 -1.4674,9.6504 -1.1412,-0.17352 z m 2.9228,3.17877 1.1457,0.14065 -0.8561,6.97378 -1.1457,-0.14065 z m 0.3333,-2.7148 1.1457,0.14066 -0.1781,1.45079 -1.1457,-0.14065 z m 4.2829,1.2078 -0.1744,1.98729 2.3685,0.2078 -0.078,0.89365 -2.3685,-0.2078 -0.3333,3.7996 q -0.075,0.85616 0.1347,1.12017 0.2161,0.26455 0.9347,0.32761 l 1.1812,0.10362 -0.085,0.9624 -1.1811,-0.10363 q -1.3311,-0.11678 -1.794,-0.65489 -0.4623,-0.54436 -0.3472,-1.85672 l 0.3334,-3.79959 -0.8437,-0.074 0.078,-0.89365 0.8437,0.074 0.1743,-1.98728 z m 5.9932,10.05726 q -0.5349,1.23591 -1.0129,1.60133 -0.4779,0.36542 -1.2553,0.33694 l -0.9215,-0.0338 0.035,-0.96545 0.677,0.0248 q 0.4765,0.0175 0.7481,-0.19858 0.2715,-0.21604 0.622,-1.04439 l 0.2262,-0.51903 -2.5868,-7.01264 1.2225,0.0448 1.993,5.57216 2.3954,-5.41136 1.2225,0.0448 z m 8.7217,-5.92051 1.3225,-0.0573 0.069,1.59194 -1.3225,0.0573 z m 12.1135,-0.19846 q 0.422,0.0851 0.859,0.48449 0.4432,0.3986 0.9294,1.13322 l 1.6008,2.37539 -1.3503,0.17295 -1.4938,-2.23098 q -0.58,-0.8744 -1.0546,-1.12351 -0.4684,-0.2499 -1.2151,-0.15426 l -1.369,0.17535 0.503,3.9264 -1.257,0.161 -1.19,-9.29019 2.8375,-0.36345 q 1.593,-0.20405 2.4623,0.36134 0.8693,0.56538 1.0415,1.90944 0.1123,0.87737 -0.2242,1.50867 -0.3304,0.6305 -1.0795,0.95414 z m -3.6483,-3.49821 0.4224,3.29793 1.5805,-0.20245 q 0.9085,-0.11637 1.3156,-0.59226 0.4125,-0.48291 0.3081,-1.29805 -0.1044,-0.81515 -0.6237,-1.16606 -0.5139,-0.35793 -1.4224,-0.24156 z m 13.1938,2.40429 0.1082,0.55414 -5.2089,1.01705 q 0.3023,1.15542 1.0505,1.6485 0.7532,0.48573 1.88,0.26573 0.6526,-0.12743 1.2309,-0.40653 0.5845,-0.28031 1.1254,-0.71829 l 0.2091,1.07133 q -0.559,0.37761 -1.1729,0.6381 -0.6139,0.26048 -1.2727,0.38912 -1.6501,0.32218 -2.8043,-0.44958 -1.148,-0.77296 -1.4678,-2.41074 -0.3306,-1.69319 0.3871,-2.86241 0.7226,-1.17657 2.2742,-1.47952 1.3915,-0.2717 2.3736,0.46975 0.987,0.73409 1.2876,2.27335 z m -1.1978,-0.11127 q -0.1939,-0.92732 -0.8131,-1.38167 -0.6131,-0.45556 -1.4505,-0.29206 -0.9481,0.18513 -1.4162,0.8326 -0.4618,0.64627 -0.3581,1.63592 z m 1.4655,-6.10504 1.1218,-0.27197 2.3,9.48649 -1.1218,0.27198 z m 3.9096,1.83374 1.1135,-0.30409 1.8511,6.77793 -1.1136,0.3041 z m -0.7205,-2.63855 1.1135,-0.3041 0.385,1.41006 -1.1135,0.30409 z m 7.9663,4.12697 q -1.3311,0.4303 -1.7461,0.90067 -0.4149,0.47038 -0.1776,1.20459 0.1891,0.58498 0.6831,0.8077 0.498,0.21482 1.1606,6.4e-4 0.9132,-0.29523 1.254,-1.11742 0.3448,-0.8301 0,-1.90456 l -0.079,-0.24474 z m 2.0441,-1.16182 1.233,3.81433 -1.0984,0.35504 -0.328,-1.01477 q -0.1792,0.73043 -0.6458,1.2043 -0.4685,0.4679 -1.2803,0.73033 -1.0267,0.33189 -1.8208,-0.0443 -0.79,-0.38412 -1.1026,-1.35114 -0.3647,-1.12818 0.2021,-1.94435 0.5729,-0.8181 2.0712,-1.30243 l 1.54,-0.49783 -0.035,-0.10745 q -0.2451,-0.75809 -0.8796,-1.00788 -0.6305,-0.25769 -1.5319,0.0337 -0.573,0.18524 -1.0719,0.49813 -0.4988,0.31288 -0.9114,0.74955 l -0.3281,-1.01477 q 0.5277,-0.42768 1.0581,-0.72441 0.5285,-0.30269 1.0657,-0.47636 1.4505,-0.46889 2.41,0.0517 0.9594,0.52057 1.4534,2.04869 z m 6.871,-2.1051 q -0.4691,-1.18397 -1.2247,-1.66062 -0.7521,-0.48478 -1.6036,-0.14746 -0.8515,0.33733 -1.0735,1.20796 -0.2183,0.86249 0.2507,2.04647 0.469,1.18397 1.2211,1.66876 0.7556,0.47664 1.6072,0.13931 0.8515,-0.33732 1.0699,-1.19981 0.2219,-0.87064 -0.2471,-2.05461 z m -4.5545,-0.83411 q 0.1072,-0.71725 0.5096,-1.20052 0.4058,-0.49142 1.1232,-0.7756 1.1898,-0.47134 2.3048,0.18008 1.1209,0.64911 1.7308,2.18885 0.61,1.53975 0.2377,2.78033 -0.3664,1.23828 -1.5562,1.70961 -0.7174,0.28418 -1.3473,0.20986 -0.6265,-0.0825 -1.1958,-0.5317 l 0.3881,0.97984 -1.079,0.42744 -3.595,-9.07518 1.079,-0.42743 z m 5.8036,-3.55739 1.0519,-0.47528 2.893,6.40289 -1.0519,0.47529 z m -1.1262,-2.49255 1.0519,-0.47528 0.6018,1.33203 -1.0519,0.47528 z m 2.9844,-1.38225 1.0378,-0.50531 4.2732,8.77629 -1.0378,0.50531 z m 4.2111,0.95635 1.0228,-0.53492 3.2561,6.22613 -1.0229,0.53492 z m -1.2676,-2.42374 1.0229,-0.53493 0.6774,1.29526 -1.0229,0.53493 z m 4.211,-1.43834 0.9851,1.73469 2.0675,-1.17415 0.443,0.78007 -2.0675,1.17415 1.8836,3.31664 q 0.4245,0.74734 0.7471,0.84545 0.3281,0.095 0.9555,-0.26125 l 1.031,-0.58552 0.4771,0.84007 -1.031,0.58552 q -1.162,0.65988 -1.8486,0.47988 -0.6897,-0.18546 -1.3402,-1.33102 l -1.8836,-3.31664 -0.7365,0.41823 -0.443,-0.78006 0.7364,-0.41824 -0.9851,-1.73469 z m 10.6447,4.87401 q 0.2616,1.32105 0.076,1.89325 -0.1858,0.5722 -0.8418,0.99026 l -0.7777,0.49561 -0.5192,-0.81472 0.5714,-0.36412 q 0.402,-0.25623 0.5028,-0.58828 0.1009,-0.33206 -0.081,-1.21291 l -0.1086,-0.55565 -6.1119,-4.30272 1.0316,-0.65744 4.805,3.45436 -1.1017,-5.81438 1.0316,-0.65743 z"
         id="path71"
         aria-label="Efficiency 路 Durability 路 Reliability" /></g><path
       d="m -10.208141,145.84653 0.04489,-0.0352 0.2425047,0.30865 q 0.04714,0.06 0.04555,0.10509 -0.0014,0.0449 -0.0518,0.0845 l -0.01712,0.0135 -0.02968,-0.0377 0.01401,-0.011 q 0.02977,-0.0234 0.0289,-0.0497 -8.34e-4,-0.0263 -0.03474,-0.0694 z m 0.6036157,-0.24667 -0.02054,0.22284 0.149874,-0.0401 z m -0.04565,-0.046 0.06252,-0.0167 0.2643517,0.36603 -0.05733,0.0153 -0.06509,-0.0946 -0.1837267,0.0491 -0.0092,0.11449 -0.05815,0.0156 z m 0.6718547,-0.0497 0.2598807,0.0602 -0.01084,0.0468 -0.204272,-0.0473 -0.02819,0.12169 0.1957377,0.0454 -0.01084,0.0468 -0.1957377,-0.0454 -0.03451,0.14894 0.2092287,0.0485 -0.01084,0.0468 -0.2648377,-0.0614 z m 0.7017712,0.35203 -0.1016924,0.12162 0.055061,0.046 q 0.030569,0.0256 0.060496,0.0237 0.029924,-0.002 0.054394,-0.0311 0.024281,-0.0291 0.020828,-0.0588 -0.00345,-0.0298 -0.034027,-0.0553 z m -0.013694,-0.0726 0.098857,0.0827 q 0.054416,0.0455 0.0615,0.0934 0.00747,0.0479 -0.032215,0.0954 -0.04006,0.0479 -0.088511,0.049 -0.048233,0.002 -0.1026481,-0.0442 l -0.055067,-0.046 -0.1087634,0.13008 -0.04379,-0.0366 z"
       id="text72"
       style="font-size:14.8699px;font-family:'&quot;Call Me&quot;', '(Maybe)?';-inkscape-font-specification:'&quot;Call Me&quot;, (Maybe)?';fill:#800080;fill-rule:evenodd;stroke:#f9f9f9;stroke-width:1.26602e-09"
       aria-label="J A E P" /><text
       xml:space="preserve"
       style="font-size:1.99113px;font-family:'Reem Kufi';-inkscape-font-specification:'Reem Kufi';fill:#f58a33;fill-opacity:1;fill-rule:evenodd;stroke:#f9f9f9;stroke-width:4.35559e-09"
       id="text10"
       x="-3.2164214"
       y="149.3364"><tspan
         id="tspan1"
         x="-3.2164214"
         y="149.3364"
         style="stroke-width:4.35559e-09"><tspan
           id="tspan9"
           style="font-size:1.99113px;fill:#f58a33;fill-opacity:1;stroke-width:4.35559e-09"><tspan
   style="font-weight:bold;fill:#f58a33;fill-opacity:1;stroke-width:4.35559e-09"
   id="tspan8">JABULANI ADAM</tspan></tspan></tspan><tspan
         id="tspan2"
         x="-3.2164214"
         y="151.8253"
         style="stroke-width:4.35559e-09"><tspan
           style="font-size:1.99113px;fill:#f58a33;fill-opacity:1;stroke-width:4.35559e-09"
           id="tspan3">ELECTRICITY AND PROJECTS</tspan></tspan></text><text
       xml:space="preserve"
       style="font-style:normal;font-variant:normal;font-weight:normal;font-stretch:normal;font-size:1.40474px;font-family:'&quot;Call Me&quot;', '(Maybe)?';-inkscape-font-specification:'&quot;Call Me&quot;, (Maybe)?';fill:#ffffff;fill-rule:evenodd;stroke:#f9f9f9;stroke-width:3.07287e-09"
       x="-3.3917882"
       y="153.79567"
       id="text54"><tspan
         id="tspan54"
         style="fill:#ff00ff;stroke-width:3.07287e-09"
         x="-3.3917882"
         y="153.79567">EFFICIENCY 路 DURABILITY 路 RELIABILITY</tspan></text></g></svg>
